<?xml version="1.0" standalone="no"?>
<!DOCTYPE svg PUBLIC "-//W3C//DTD SVG 20010904//EN"
 "http://www.w3.org/TR/2001/REC-SVG-20010904/DTD/svg10.dtd">
<svg version="1.0" xmlns="http://www.w3.org/2000/svg"
 width="128.000000pt" height="116.000000pt" viewBox="0 0 128.000000 116.000000"
 preserveAspectRatio="xMidYMid meet">

<g transform="translate(0.000000,116.000000) scale(0.100000,-0.100000)"
fill="#000000" stroke="none">
<path d="M274 1146 c-66 -16 -133 -56 -173 -101 -93 -106 -125 -286 -75 -428
21 -62 96 -177 165 -251 85 -94 417 -356 449 -356 32 0 364 262 449 356 69 74
144 189 165 251 53 152 10 353 -95 448 -107 97 -264 119 -402 58 -34 -15 -71
-41 -88 -62 l-29 -36 -29 36 c-62 74 -221 115 -337 85z"/>
</g>
</svg>
